<svg width="18" height="19" viewBox="0 0 18 19" fill="none" xmlns="http://www.w3.org/2000/svg">
<g clip-path="url(#clip0_220_528)">
<path d="M17.9914 9.46898C17.9914 8.73153 17.9302 8.19338 17.7977 7.63531H9.17932V10.9638H14.2381C14.1361 11.791 13.5854 13.0367 12.3615 13.8738L12.3443 13.9852L15.0693 16.0478L15.258 16.0663C16.9919 14.5016 17.9914 12.1996 17.9914 9.46898Z" fill="#4285F4"/>
<path d="M9.17932 18.2388C11.6577 18.2388 13.7383 17.4415 15.258 16.0663L12.3615 13.8738C11.5863 14.402 10.546 14.7707 9.17932 14.7707C6.75192 14.7707 4.6917 13.2061 3.95728 11.0436L3.84963 11.0525L1.01618 13.1951L0.979126 13.2958C2.48859 16.2257 5.58916 18.2388 9.17932 18.2388Z" fill="#34A853"/>
<path d="M3.95726 11.0436C3.76348 10.4855 3.65133 9.88752 3.65133 9.26968C3.65133 8.65177 3.76348 8.05385 3.94706 7.49578L3.94193 7.37693L1.07297 5.19989L0.979102 5.24352C0.356977 6.45934 0 7.82466 0 9.26968C0 10.7147 0.356977 12.0799 0.979102 13.2958L3.95726 11.0436Z" fill="#FBBC05"/>
<path d="M9.17932 3.76862C10.903 3.76862 12.0656 4.49611 12.7286 5.10406L15.3192 2.63256C13.7282 1.18754 11.6577 0.300598 9.17932 0.300598C5.58916 0.300598 2.48859 2.31364 0.979126 5.24352L3.94709 7.49579C4.6917 5.33325 6.75192 3.76862 9.17932 3.76862Z" fill="#EB4335"/>
</g>
<defs>
<clipPath id="clip0_220_528">
<rect width="18" height="18" fill="white" transform="translate(0 0.300598)"/>
</clipPath>
</defs>
</svg>
