<svg width="166" height="161" viewBox="0 0 166 161" fill="none" xmlns="http://www.w3.org/2000/svg">
<path d="M73.1005 34.1342C78.5678 39.6015 87.4321 39.6015 92.8994 34.1342L103.506 23.5276L146.64 66.6611C150.545 70.5664 150.545 76.898 146.64 80.8033L90.0711 137.372C86.1659 141.277 79.8342 141.277 75.929 137.372L19.3604 80.8031C15.4552 76.8979 15.4552 70.5662 19.3604 66.661L62.4939 23.5276L73.1005 34.1342Z" fill="#7E7E7E"/>
<path d="M100.678 20.6992L90.071 31.3058C86.1658 35.211 79.8341 35.211 75.9289 31.3058L65.3223 20.6992L100.678 20.6992Z" fill="#7E7E7E"/>
<path d="M35.929 97.3719C61.9025 71.4502 103.814 71.3082 129.572 97.0668C129.706 97.2009 129.839 97.3365 129.971 97.4715L90.0711 137.372C86.1659 141.277 79.8342 141.277 75.929 137.372L35.929 97.3719Z" fill="#333333"/>
<rect x="109" y="119.5" width="41" height="21" rx="4" fill="#333333"/>
<path d="M113.536 134.5L115.524 125.148H119.038C119.673 125.148 120.191 125.246 120.592 125.442C121.003 125.638 121.306 125.899 121.502 126.226C121.698 126.543 121.796 126.884 121.796 127.248C121.796 127.696 121.661 128.135 121.39 128.564C121.119 128.993 120.723 129.329 120.2 129.572C120.583 129.721 120.867 129.964 121.054 130.3C121.25 130.627 121.348 130.995 121.348 131.406C121.348 131.761 121.269 132.12 121.11 132.484C120.961 132.848 120.727 133.184 120.41 133.492C120.102 133.791 119.705 134.033 119.22 134.22C118.744 134.407 118.184 134.5 117.54 134.5H113.536ZM116.028 129.152H118.436C118.865 129.152 119.225 129.073 119.514 128.914C119.803 128.746 120.023 128.536 120.172 128.284C120.321 128.032 120.396 127.775 120.396 127.514C120.396 127.187 120.275 126.898 120.032 126.646C119.799 126.394 119.435 126.268 118.94 126.268H116.63L116.028 129.152ZM115.118 133.394H117.652C118.128 133.394 118.529 133.301 118.856 133.114C119.192 132.918 119.449 132.675 119.626 132.386C119.803 132.097 119.892 131.807 119.892 131.518C119.892 131.163 119.757 130.855 119.486 130.594C119.215 130.323 118.791 130.188 118.212 130.188H115.804L115.118 133.394ZM122.286 134.5L124.274 125.148H130.644L130.406 126.282H125.38L124.778 129.124H128.488L128.236 130.244H124.54L123.868 133.366H128.894L128.656 134.5H122.286ZM132.372 134.5L134.108 126.282H131.028L131.266 125.148H138.798L138.56 126.282H135.452L133.73 134.5H132.372ZM136.155 134.5L141.643 125.148H143.267L144.793 134.5H143.351L143.057 132.456H138.829L137.667 134.5H136.155ZM139.459 131.336H142.903L142.217 126.478L139.459 131.336Z" fill="#EDF0F3"/>
</svg>
